<?xml version="1.0" standalone="no"?>
<!DOCTYPE svg PUBLIC "-//W3C//DTD SVG 20010904//EN"
 "http://www.w3.org/TR/2001/REC-SVG-20010904/DTD/svg10.dtd">
<svg version="1.0" xmlns="http://www.w3.org/2000/svg"
 width="932.000000pt" height="128.000000pt" viewBox="0 0 932.000000 128.000000"
 preserveAspectRatio="xMidYMid meet">

<g transform="translate(0.000000,128.000000) scale(0.100000,-0.100000)"
fill="#000000" stroke="none">
<path d="M530 1270 c-237 -44 -425 -211 -501 -445 -33 -100 -33 -270 0 -370
68 -208 218 -358 426 -426 100 -33 270 -33 370 0 208 68 358 218 426 426 33
100 33 270 0 370 -67 206 -218 358 -421 425 -73 23 -228 34 -300 20z m235
-234 c26 -8 65 -29 87 -46 22 -18 41 -30 44 -28 2 3 10 22 17 44 10 27 21 40
35 42 36 5 37 -24 7 -117 -51 -160 -65 -191 -84 -191 -37 0 -42 23 -21 86 l21
59 -44 42 c-124 117 -294 55 -363 -132 -27 -73 -25 -257 4 -343 37 -113 84
-162 163 -170 97 -9 202 37 233 103 34 70 9 183 -42 200 -11 3 -47 -3 -81 -15
-65 -22 -91 -19 -91 12 0 42 165 84 288 72 75 -7 102 -18 102 -39 0 -22 -19
-28 -76 -26 l-53 2 16 -32 c22 -44 28 -119 13 -164 -18 -54 -81 -119 -143
-146 -71 -31 -202 -38 -283 -14 -70 20 -152 71 -188 118 -65 85 -93 208 -76
339 22 175 124 300 280 342 71 19 174 20 235 2z"/>
<path d="M408 893 c-21 -21 -50 -65 -65 -98 -26 -55 -28 -70 -28 -175 0 -99 3
-122 23 -165 23 -51 63 -99 95 -116 15 -9 15 -3 -6 38 -34 67 -48 146 -48 267
0 110 22 201 62 258 29 40 9 35 -33 -9z"/>
<path d="M2117 1119 c-42 -10 -108 -42 -148 -72 -128 -94 -173 -363 -89 -527
29 -56 109 -124 176 -150 78 -29 197 -32 273 -6 59 20 124 73 148 119 23 46
21 137 -6 182 l-21 37 52 -2 c72 -3 78 -2 78 15 0 29 -40 37 -154 33 -86 -3
-122 -9 -158 -25 -49 -22 -54 -28 -39 -51 6 -11 20 -9 70 8 71 24 92 20 119
-18 84 -119 -22 -264 -194 -266 -49 -1 -67 4 -97 24 -76 52 -123 192 -114 345
7 120 28 176 91 241 43 44 60 54 108 64 50 11 63 11 102 -4 51 -20 91 -49 107
-77 8 -15 6 -33 -6 -70 -18 -52 -15 -79 8 -79 20 0 114 267 99 282 -18 18 -38
2 -51 -41 -6 -23 -13 -41 -15 -41 -2 0 -27 16 -56 35 -28 19 -68 39 -88 45
-44 12 -142 12 -195 -1z m-85 -114 c-84 -107 -94 -360 -21 -515 l29 -63 -27
18 c-72 46 -108 107 -125 212 -21 134 21 265 108 342 51 45 69 48 36 6z"/>
<path d="M8133 1093 c-8 -20 5 -31 47 -38 l40 -7 0 -314 0 -314 -28 0 c-38 0
-67 -22 -59 -45 4 -9 13 -15 21 -12 31 12 175 18 234 9 50 -7 65 -6 74 6 10
11 8 17 -7 28 -10 8 -29 14 -42 14 l-23 0 -2 341 -3 341 -124 2 c-88 1 -125
-2 -128 -11z m207 -353 l0 -310 -35 0 -35 0 0 310 0 310 35 0 35 0 0 -310z"/>
<path d="M4646 1085 c-7 -20 14 -33 59 -37 l40 -3 3 -311 2 -311 -39 -7 c-43
-6 -54 -16 -46 -38 4 -10 39 -13 163 -12 152 1 157 2 160 23 3 15 -2 21 -16
21 -48 0 -52 8 -52 96 0 76 2 84 19 84 13 0 21 -9 25 -28 11 -49 66 -132 108
-162 34 -25 50 -30 99 -30 51 0 63 4 93 31 39 34 56 79 56 151 0 62 -15 100
-38 96 -15 -3 -17 -14 -14 -85 4 -72 2 -82 -16 -92 -32 -17 -71 28 -115 136
l-25 61 23 22 c13 12 37 47 53 79 28 51 35 58 77 69 35 9 46 16 43 30 -3 12
-12 16 -33 14 -17 -1 -70 -5 -118 -8 -65 -5 -90 -11 -94 -21 -8 -20 15 -33 60
-33 42 0 44 -5 20 -40 -35 -53 -70 -84 -128 -111 -101 -49 -94 -62 -97 198
l-3 227 -132 2 c-102 2 -133 -1 -137 -11z m224 -351 l0 -315 -37 3 -38 3 -3
307 -2 307 27 4 c16 2 34 5 41 6 9 1 12 -68 12 -315z m234 -171 c21 -43 51
-93 69 -110 l31 -33 -42 0 c-55 0 -100 40 -136 120 -15 34 -26 63 -24 64 3 3
61 35 64 36 1 0 18 -35 38 -77z"/>
<path d="M7393 1084 c-9 -23 7 -34 53 -34 l44 0 0 -313 0 -313 -37 -10 c-27
-6 -38 -14 -38 -27 0 -18 11 -19 160 -20 149 0 160 1 160 18 0 13 -11 21 -32
27 l-33 9 0 84 c0 102 15 112 49 31 25 -62 80 -130 122 -151 15 -8 50 -15 76
-15 95 0 144 60 145 174 0 78 -8 108 -30 104 -14 -3 -17 -17 -17 -86 0 -89
-11 -110 -47 -91 -24 13 -64 78 -90 145 l-21 55 28 29 c16 17 40 51 54 77 21
38 33 49 66 58 30 8 41 16 43 34 3 22 1 23 -30 17 -18 -4 -73 -9 -121 -13 -83
-5 -88 -7 -85 -27 2 -17 12 -22 51 -26 l49 -5 -30 -40 c-50 -70 -109 -111
-185 -130 l-27 -7 -2 228 -3 229 -133 1 c-102 1 -135 -2 -139 -12z m227 -349
l0 -315 -40 0 -40 0 0 309 0 310 23 4 c62 12 57 38 57 -308z m306 -294 l27
-21 -41 0 c-51 0 -102 41 -138 111 -32 63 -30 76 8 92 l32 13 43 -87 c24 -48
55 -97 69 -108z"/>
<path d="M7311 928 c-5 -13 -12 -40 -16 -60 -6 -39 -21 -50 -31 -23 -3 8 -29
26 -57 40 -108 53 -250 23 -317 -68 -88 -119 -77 -311 22 -404 84 -79 261 -87
342 -15 63 56 101 153 59 152 -11 -1 -27 -19 -41 -50 -43 -91 -142 -123 -202
-65 -47 45 -63 101 -58 198 7 135 61 217 144 217 53 0 103 -56 119 -133 4 -20
11 -27 23 -25 20 4 40 87 44 187 3 68 -13 94 -31 49z m-289 -95 c-40 -58 -57
-124 -57 -223 0 -85 3 -102 27 -148 15 -29 25 -52 22 -52 -14 0 -62 32 -86 57
-37 39 -48 73 -48 152 0 113 35 182 112 220 54 26 53 26 30 -6z"/>
<path d="M3765 891 l-100 -6 -6 -130 c-7 -138 -21 -197 -64 -271 -62 -107
-179 -113 -220 -12 -31 78 -15 271 31 359 26 51 15 59 -75 59 -45 0 -83 -5
-86 -10 -13 -22 17 -40 65 -40 l48 0 -21 -57 c-17 -47 -21 -81 -22 -178 0
-110 2 -124 25 -165 64 -114 194 -120 276 -13 l29 38 5 -55 c5 -54 6 -55 35
-53 17 1 75 3 130 5 92 3 100 5 100 23 0 16 -8 21 -42 23 l-43 3 0 214 c0 230
-1 225 55 225 26 0 50 24 40 40 -3 5 -18 9 -33 8 -15 -1 -72 -4 -127 -7z m13
-263 l-3 -213 -37 -3 -38 -3 0 103 c0 57 3 154 7 216 l6 112 34 0 33 0 -2
-212z"/>
<path d="M4135 875 c-89 -46 -134 -133 -135 -259 0 -88 15 -136 58 -187 80
-93 202 -93 288 -2 l36 38 -7 -75 c-14 -157 -54 -240 -117 -240 -70 0 -148 64
-148 121 0 18 -6 32 -16 36 -49 19 -40 -79 13 -138 115 -128 324 -70 408 113
21 47 28 81 35 190 5 73 9 186 10 250 l0 117 28 3 c19 2 27 9 27 23 0 19 -8
20 -110 23 -89 2 -112 0 -121 -13 -10 -13 -15 -13 -45 2 -19 10 -61 19 -94 21
-50 3 -69 -1 -110 -23z m168 -36 c12 -6 34 -23 50 -37 25 -24 27 -31 27 -109
0 -205 -131 -340 -256 -263 -118 73 -100 340 28 403 38 19 119 22 151 6z m205
-119 c4 -158 -13 -376 -32 -422 -16 -38 -72 -108 -86 -108 -4 0 1 28 13 63 18
55 21 93 25 325 l4 263 36 -3 37 -3 3 -115z"/>
<path d="M6605 891 l-100 -6 -7 -124 c-11 -184 -52 -300 -122 -342 -84 -51
-162 0 -181 117 -9 58 12 198 41 271 14 35 22 67 19 73 -3 5 -42 10 -86 10
-64 0 -81 -3 -86 -16 -8 -22 14 -34 69 -34 l46 0 -19 -50 c-37 -98 -42 -251
-9 -335 23 -60 83 -105 141 -105 47 0 113 36 140 75 13 19 28 35 32 35 5 0 7
-19 6 -43 -4 -61 4 -69 59 -61 26 4 83 8 127 8 73 1 80 3 80 21 0 16 -8 21
-45 25 l-45 5 4 210 c1 116 5 212 7 214 2 2 21 7 41 10 29 5 39 11 41 29 3 19
-1 22 -25 20 -15 -1 -73 -4 -128 -7z m13 -263 l-3 -213 -40 -3 -40 -3 6 193
c4 106 7 203 8 216 1 18 7 22 36 22 l35 0 -2 -212z"/>
<path d="M8745 890 c-135 -28 -206 -118 -207 -259 -1 -119 60 -215 167 -262
93 -41 234 -22 288 39 36 40 -9 59 -50 20 -17 -16 -39 -23 -81 -26 -51 -4 -62
-1 -89 22 -27 23 -63 97 -63 130 0 7 42 11 123 11 102 0 129 3 162 20 l40 20
-1 60 c0 33 -6 76 -13 96 -14 43 -63 95 -106 113 -44 19 -122 26 -170 16z
m196 -97 c27 -30 39 -53 44 -87 4 -25 5 -52 2 -59 -11 -30 -158 -48 -246 -31
-26 6 -31 11 -31 36 0 57 23 119 56 155 32 34 36 35 86 31 44 -5 57 -11 89
-45z m-249 -20 c-24 -52 -27 -69 -27 -163 1 -75 6 -116 17 -142 10 -21 14 -38
9 -38 -13 0 -72 63 -89 94 -25 48 -22 161 6 213 19 37 82 93 104 93 4 0 -5
-26 -20 -57z"/>
<path d="M2985 867 c-16 -8 -39 -24 -50 -37 l-20 -22 -5 28 -5 28 -135 1
c-128 0 -135 -1 -135 -20 0 -17 8 -20 48 -23 l47 -3 0 -194 0 -194 -42 -8
c-32 -6 -43 -13 -43 -27 0 -17 12 -19 178 -20 172 -1 178 0 175 19 -2 14 -14
22 -45 28 l-43 8 0 123 c0 139 14 197 59 240 32 31 97 45 127 28 17 -10 16
-12 -12 -22 -32 -11 -64 -55 -64 -88 0 -11 12 -34 26 -51 20 -25 34 -31 64
-31 104 0 123 162 27 225 -34 22 -115 28 -152 12z m-125 -242 l0 -195 -40 0
-40 0 0 189 0 190 33 4 c17 2 35 5 40 5 4 1 7 -86 7 -193z m275 122 c13 -10
16 -21 11 -40 -5 -22 -12 -27 -36 -27 -24 0 -31 5 -36 27 -5 19 -2 30 11 40
11 7 22 13 25 13 3 0 14 -6 25 -13z"/>
<path d="M5766 865 c-21 -7 -50 -25 -65 -39 -35 -33 -39 -33 -43 5 l-3 32
-130 0 c-125 1 -130 0 -133 -21 -3 -19 3 -22 47 -28 l51 -7 0 -192 c0 -208 1
-205 -54 -205 -26 0 -46 -17 -40 -34 3 -8 52 -11 162 -10 145 1 157 3 157 20
0 11 -10 20 -25 24 -24 6 -25 8 -28 110 -5 144 9 200 61 255 67 70 147 71 184
3 14 -26 18 -55 17 -143 0 -60 -6 -134 -13 -162 l-13 -53 -43 0 c-42 0 -73
-19 -61 -38 8 -13 249 -11 258 1 13 21 -5 37 -41 37 -57 0 -64 9 -51 66 16 72
17 221 2 275 -21 72 -76 120 -135 119 -12 -1 -39 -7 -61 -15z m-156 -250 l0
-195 -35 0 -35 0 0 195 0 195 35 0 35 0 0 -195z"/>
</g>
</svg>
